<mxfile host="app.diagrams.net" agent="Mozilla/5.0 (Windows NT 10.0; Win64; x64) AppleWebKit/537.36 (KHTML, like Gecko) Chrome/139.0.0.0 Safari/537.36" version="28.1.1">
  <diagram name="Halaman-1" id="SJ_dmw7XxOMmIHAftR0B">
    <mxGraphModel dx="1426" dy="789" grid="1" gridSize="10" guides="1" tooltips="1" connect="1" arrows="1" fold="1" page="1" pageScale="1" pageWidth="827" pageHeight="1169" math="0" shadow="0">
      <root>
        <mxCell id="0" />
        <mxCell id="1" parent="0" />
        <mxCell id="0yljguDL6A0CscPSdTye-1" value="User" style="swimlane;whiteSpace=wrap;html=1;" vertex="1" parent="1">
          <mxGeometry x="120" y="110" width="200" height="730" as="geometry" />
        </mxCell>
        <mxCell id="0yljguDL6A0CscPSdTye-12" style="edgeStyle=orthogonalEdgeStyle;rounded=0;orthogonalLoop=1;jettySize=auto;html=1;exitX=0.5;exitY=1;exitDx=0;exitDy=0;entryX=0.5;entryY=0;entryDx=0;entryDy=0;" edge="1" parent="0yljguDL6A0CscPSdTye-1" source="0yljguDL6A0CscPSdTye-4" target="0yljguDL6A0CscPSdTye-6">
          <mxGeometry relative="1" as="geometry" />
        </mxCell>
        <mxCell id="0yljguDL6A0CscPSdTye-4" value="" style="ellipse;whiteSpace=wrap;html=1;" vertex="1" parent="0yljguDL6A0CscPSdTye-1">
          <mxGeometry x="55" y="40" width="90" height="60" as="geometry" />
        </mxCell>
        <mxCell id="0yljguDL6A0CscPSdTye-6" value="" style="rhombus;whiteSpace=wrap;html=1;" vertex="1" parent="0yljguDL6A0CscPSdTye-1">
          <mxGeometry x="60" y="120" width="80" height="80" as="geometry" />
        </mxCell>
        <mxCell id="0yljguDL6A0CscPSdTye-8" value="Login/Register" style="text;html=1;align=center;verticalAlign=middle;whiteSpace=wrap;rounded=0;fontSize=10;" vertex="1" parent="0yljguDL6A0CscPSdTye-1">
          <mxGeometry x="62.5" y="146.25" width="75" height="27.5" as="geometry" />
        </mxCell>
        <mxCell id="0yljguDL6A0CscPSdTye-9" value="Open App" style="text;html=1;align=center;verticalAlign=middle;whiteSpace=wrap;rounded=0;fontSize=10;" vertex="1" parent="0yljguDL6A0CscPSdTye-1">
          <mxGeometry x="62.5" y="56.25" width="75" height="27.5" as="geometry" />
        </mxCell>
        <mxCell id="0yljguDL6A0CscPSdTye-43" style="edgeStyle=orthogonalEdgeStyle;rounded=0;orthogonalLoop=1;jettySize=auto;html=1;exitX=0;exitY=0.5;exitDx=0;exitDy=0;entryX=0;entryY=0.5;entryDx=0;entryDy=0;" edge="1" parent="0yljguDL6A0CscPSdTye-1" source="0yljguDL6A0CscPSdTye-30" target="0yljguDL6A0CscPSdTye-41">
          <mxGeometry relative="1" as="geometry">
            <mxPoint x="20" y="600" as="targetPoint" />
          </mxGeometry>
        </mxCell>
        <mxCell id="0yljguDL6A0CscPSdTye-30" value="" style="rounded=0;whiteSpace=wrap;html=1;" vertex="1" parent="0yljguDL6A0CscPSdTye-1">
          <mxGeometry x="46.25" y="310" width="107.5" height="53.75" as="geometry" />
        </mxCell>
        <mxCell id="0yljguDL6A0CscPSdTye-31" value="Masuk Halaman Admin" style="text;html=1;align=center;verticalAlign=middle;whiteSpace=wrap;rounded=0;fontSize=10;" vertex="1" parent="0yljguDL6A0CscPSdTye-1">
          <mxGeometry x="62.5" y="323.12" width="75" height="27.5" as="geometry" />
        </mxCell>
        <mxCell id="0yljguDL6A0CscPSdTye-44" style="edgeStyle=orthogonalEdgeStyle;rounded=0;orthogonalLoop=1;jettySize=auto;html=1;exitX=0;exitY=0.5;exitDx=0;exitDy=0;entryX=0;entryY=0.5;entryDx=0;entryDy=0;" edge="1" parent="0yljguDL6A0CscPSdTye-1" source="0yljguDL6A0CscPSdTye-32" target="0yljguDL6A0CscPSdTye-41">
          <mxGeometry relative="1" as="geometry" />
        </mxCell>
        <mxCell id="0yljguDL6A0CscPSdTye-46" style="edgeStyle=orthogonalEdgeStyle;rounded=0;orthogonalLoop=1;jettySize=auto;html=1;exitX=0;exitY=0.5;exitDx=0;exitDy=0;entryX=0;entryY=0.5;entryDx=0;entryDy=0;" edge="1" parent="0yljguDL6A0CscPSdTye-1" source="0yljguDL6A0CscPSdTye-32" target="0yljguDL6A0CscPSdTye-41">
          <mxGeometry relative="1" as="geometry" />
        </mxCell>
        <mxCell id="0yljguDL6A0CscPSdTye-32" value="" style="rounded=0;whiteSpace=wrap;html=1;" vertex="1" parent="0yljguDL6A0CscPSdTye-1">
          <mxGeometry x="46.25" y="390" width="107.5" height="53.75" as="geometry" />
        </mxCell>
        <mxCell id="0yljguDL6A0CscPSdTye-33" value="Masuk Halaman Seller" style="text;html=1;align=center;verticalAlign=middle;whiteSpace=wrap;rounded=0;fontSize=10;" vertex="1" parent="0yljguDL6A0CscPSdTye-1">
          <mxGeometry x="62.5" y="403.12" width="75" height="27.5" as="geometry" />
        </mxCell>
        <mxCell id="0yljguDL6A0CscPSdTye-47" style="edgeStyle=orthogonalEdgeStyle;rounded=0;orthogonalLoop=1;jettySize=auto;html=1;exitX=0;exitY=0.5;exitDx=0;exitDy=0;entryX=0;entryY=0.5;entryDx=0;entryDy=0;" edge="1" parent="0yljguDL6A0CscPSdTye-1" source="0yljguDL6A0CscPSdTye-34" target="0yljguDL6A0CscPSdTye-41">
          <mxGeometry relative="1" as="geometry" />
        </mxCell>
        <mxCell id="0yljguDL6A0CscPSdTye-34" value="" style="rounded=0;whiteSpace=wrap;html=1;" vertex="1" parent="0yljguDL6A0CscPSdTye-1">
          <mxGeometry x="46.25" y="470" width="107.5" height="53.75" as="geometry" />
        </mxCell>
        <mxCell id="0yljguDL6A0CscPSdTye-35" value="Masuk Halaman Buyer" style="text;html=1;align=center;verticalAlign=middle;whiteSpace=wrap;rounded=0;fontSize=10;" vertex="1" parent="0yljguDL6A0CscPSdTye-1">
          <mxGeometry x="62.5" y="483.12" width="75" height="27.5" as="geometry" />
        </mxCell>
        <mxCell id="0yljguDL6A0CscPSdTye-41" value="" style="rounded=0;whiteSpace=wrap;html=1;" vertex="1" parent="0yljguDL6A0CscPSdTye-1">
          <mxGeometry x="80" y="580" width="107.5" height="53.75" as="geometry" />
        </mxCell>
        <mxCell id="0yljguDL6A0CscPSdTye-42" value="Logout" style="text;html=1;align=center;verticalAlign=middle;whiteSpace=wrap;rounded=0;fontSize=10;" vertex="1" parent="0yljguDL6A0CscPSdTye-1">
          <mxGeometry x="96.25" y="593.12" width="75" height="27.5" as="geometry" />
        </mxCell>
        <mxCell id="0yljguDL6A0CscPSdTye-2" value="Aplikasi" style="swimlane;whiteSpace=wrap;html=1;startSize=23;" vertex="1" parent="1">
          <mxGeometry x="320" y="110" width="200" height="730" as="geometry" />
        </mxCell>
        <mxCell id="0yljguDL6A0CscPSdTye-10" value="" style="rounded=0;whiteSpace=wrap;html=1;" vertex="1" parent="0yljguDL6A0CscPSdTye-2">
          <mxGeometry x="46.25" y="140" width="107.5" height="53.75" as="geometry" />
        </mxCell>
        <mxCell id="0yljguDL6A0CscPSdTye-11" value="Register Proses" style="text;html=1;align=center;verticalAlign=middle;whiteSpace=wrap;rounded=0;fontSize=10;" vertex="1" parent="0yljguDL6A0CscPSdTye-2">
          <mxGeometry x="62.5" y="153.13" width="75" height="27.5" as="geometry" />
        </mxCell>
        <mxCell id="0yljguDL6A0CscPSdTye-15" value="" style="rounded=0;whiteSpace=wrap;html=1;" vertex="1" parent="0yljguDL6A0CscPSdTye-2">
          <mxGeometry x="46.25" y="243.13" width="107.5" height="53.75" as="geometry" />
        </mxCell>
        <mxCell id="0yljguDL6A0CscPSdTye-16" value="Login Proses" style="text;html=1;align=center;verticalAlign=middle;whiteSpace=wrap;rounded=0;fontSize=10;" vertex="1" parent="0yljguDL6A0CscPSdTye-2">
          <mxGeometry x="62.5" y="256.25" width="75" height="27.5" as="geometry" />
        </mxCell>
        <mxCell id="0yljguDL6A0CscPSdTye-27" value="" style="rounded=0;whiteSpace=wrap;html=1;" vertex="1" parent="0yljguDL6A0CscPSdTye-2">
          <mxGeometry x="46.25" y="360" width="107.5" height="53.75" as="geometry" />
        </mxCell>
        <mxCell id="0yljguDL6A0CscPSdTye-28" value="Masuk Halaman sesuai role" style="text;html=1;align=center;verticalAlign=middle;whiteSpace=wrap;rounded=0;fontSize=10;" vertex="1" parent="0yljguDL6A0CscPSdTye-2">
          <mxGeometry x="62.5" y="373.12" width="75" height="27.5" as="geometry" />
        </mxCell>
        <mxCell id="0yljguDL6A0CscPSdTye-3" value="Database" style="swimlane;whiteSpace=wrap;html=1;" vertex="1" parent="1">
          <mxGeometry x="520" y="110" width="200" height="730" as="geometry" />
        </mxCell>
        <mxCell id="0yljguDL6A0CscPSdTye-18" value="" style="rounded=0;whiteSpace=wrap;html=1;" vertex="1" parent="0yljguDL6A0CscPSdTye-3">
          <mxGeometry x="46.25" y="146.25" width="107.5" height="53.75" as="geometry" />
        </mxCell>
        <mxCell id="0yljguDL6A0CscPSdTye-19" value="Simpan Data User Baru" style="text;html=1;align=center;verticalAlign=middle;whiteSpace=wrap;rounded=0;fontSize=10;" vertex="1" parent="0yljguDL6A0CscPSdTye-3">
          <mxGeometry x="62.5" y="159.37" width="75" height="27.5" as="geometry" />
        </mxCell>
        <mxCell id="0yljguDL6A0CscPSdTye-21" value="" style="rounded=0;whiteSpace=wrap;html=1;" vertex="1" parent="0yljguDL6A0CscPSdTye-3">
          <mxGeometry x="46.25" y="310" width="107.5" height="53.75" as="geometry" />
        </mxCell>
        <mxCell id="0yljguDL6A0CscPSdTye-22" value="Verifikasi Akun" style="text;html=1;align=center;verticalAlign=middle;whiteSpace=wrap;rounded=0;fontSize=10;" vertex="1" parent="0yljguDL6A0CscPSdTye-3">
          <mxGeometry x="62.5" y="323.12" width="75" height="27.5" as="geometry" />
        </mxCell>
        <mxCell id="0yljguDL6A0CscPSdTye-14" style="edgeStyle=orthogonalEdgeStyle;rounded=0;orthogonalLoop=1;jettySize=auto;html=1;exitX=1;exitY=0.5;exitDx=0;exitDy=0;entryX=0.023;entryY=0.368;entryDx=0;entryDy=0;entryPerimeter=0;" edge="1" parent="1" source="0yljguDL6A0CscPSdTye-8" target="0yljguDL6A0CscPSdTye-10">
          <mxGeometry relative="1" as="geometry" />
        </mxCell>
        <mxCell id="0yljguDL6A0CscPSdTye-17" style="edgeStyle=orthogonalEdgeStyle;rounded=0;orthogonalLoop=1;jettySize=auto;html=1;exitX=0.5;exitY=1;exitDx=0;exitDy=0;entryX=0;entryY=0.5;entryDx=0;entryDy=0;" edge="1" parent="1" source="0yljguDL6A0CscPSdTye-6" target="0yljguDL6A0CscPSdTye-15">
          <mxGeometry relative="1" as="geometry" />
        </mxCell>
        <mxCell id="0yljguDL6A0CscPSdTye-20" style="edgeStyle=orthogonalEdgeStyle;rounded=0;orthogonalLoop=1;jettySize=auto;html=1;exitX=1;exitY=0.5;exitDx=0;exitDy=0;entryX=0.004;entryY=0.393;entryDx=0;entryDy=0;entryPerimeter=0;" edge="1" parent="1" source="0yljguDL6A0CscPSdTye-10" target="0yljguDL6A0CscPSdTye-18">
          <mxGeometry relative="1" as="geometry" />
        </mxCell>
        <mxCell id="0yljguDL6A0CscPSdTye-26" style="edgeStyle=orthogonalEdgeStyle;rounded=0;orthogonalLoop=1;jettySize=auto;html=1;exitX=1;exitY=1;exitDx=0;exitDy=0;entryX=0;entryY=0.5;entryDx=0;entryDy=0;" edge="1" parent="1" source="0yljguDL6A0CscPSdTye-15" target="0yljguDL6A0CscPSdTye-21">
          <mxGeometry relative="1" as="geometry" />
        </mxCell>
        <mxCell id="0yljguDL6A0CscPSdTye-29" style="edgeStyle=orthogonalEdgeStyle;rounded=0;orthogonalLoop=1;jettySize=auto;html=1;exitX=0.5;exitY=1;exitDx=0;exitDy=0;entryX=1;entryY=0.5;entryDx=0;entryDy=0;" edge="1" parent="1" source="0yljguDL6A0CscPSdTye-21" target="0yljguDL6A0CscPSdTye-27">
          <mxGeometry relative="1" as="geometry" />
        </mxCell>
        <mxCell id="0yljguDL6A0CscPSdTye-36" style="edgeStyle=orthogonalEdgeStyle;rounded=0;orthogonalLoop=1;jettySize=auto;html=1;exitX=0;exitY=0;exitDx=0;exitDy=0;entryX=1;entryY=0.5;entryDx=0;entryDy=0;" edge="1" parent="1" source="0yljguDL6A0CscPSdTye-27" target="0yljguDL6A0CscPSdTye-30">
          <mxGeometry relative="1" as="geometry" />
        </mxCell>
        <mxCell id="0yljguDL6A0CscPSdTye-37" style="edgeStyle=orthogonalEdgeStyle;rounded=0;orthogonalLoop=1;jettySize=auto;html=1;exitX=0;exitY=1;exitDx=0;exitDy=0;entryX=1;entryY=0.5;entryDx=0;entryDy=0;" edge="1" parent="1" source="0yljguDL6A0CscPSdTye-27" target="0yljguDL6A0CscPSdTye-34">
          <mxGeometry relative="1" as="geometry" />
        </mxCell>
        <mxCell id="0yljguDL6A0CscPSdTye-38" style="edgeStyle=orthogonalEdgeStyle;rounded=0;orthogonalLoop=1;jettySize=auto;html=1;exitX=0;exitY=0.5;exitDx=0;exitDy=0;entryX=1;entryY=0.5;entryDx=0;entryDy=0;" edge="1" parent="1" source="0yljguDL6A0CscPSdTye-27" target="0yljguDL6A0CscPSdTye-32">
          <mxGeometry relative="1" as="geometry" />
        </mxCell>
        <mxCell id="0yljguDL6A0CscPSdTye-40" style="edgeStyle=orthogonalEdgeStyle;rounded=0;orthogonalLoop=1;jettySize=auto;html=1;exitX=0.5;exitY=1;exitDx=0;exitDy=0;entryX=1;entryY=0.5;entryDx=0;entryDy=0;" edge="1" parent="1" source="0yljguDL6A0CscPSdTye-18" target="0yljguDL6A0CscPSdTye-15">
          <mxGeometry relative="1" as="geometry" />
        </mxCell>
      </root>
    </mxGraphModel>
  </diagram>
</mxfile>
